# xmcd
#
# Track frame offsets:
#	150
#	708
#	1742
#	22483
#	44492
#	68339
#	92617
#	113389
#	133906
#	159463
#	181498
#	205754
#	229351
#	251229
#	283588
#
# Disc length: 4052 seconds
#
# Revision: 0
# Processed by: cddbd v1.5.2PL0 Copyright (c) Steve Scherf et al.
# Submitted via: dBpowerAMP V4.0
#
DISCID=c80fd20f
DTITLE=Tracy Chevalier - Damen med enhörningen
DYEAR=2003
DGENRE=CD-BOK
TTITLE0=05.01
TTITLE1=05.02
TTITLE2=05.03
TTITLE3=05.04
TTITLE4=05.05
TTITLE5=05.06
TTITLE6=05.07
TTITLE7=05.08
TTITLE8=05.09
TTITLE9=05.10
TTITLE10=05.11
TTITLE11=05.12
TTITLE12=05.13
TTITLE13=05.14
TTITLE14=05.15
EXTD=
EXTT0=
EXTT1=
EXTT2=
EXTT3=
EXTT4=
EXTT5=
EXTT6=
EXTT7=
EXTT8=
EXTT9=
EXTT10=
EXTT11=
EXTT12=
EXTT13=
EXTT14=
PLAYORDER=
